<svg width="268" height="248" viewBox="0 0 268 248" fill="none" xmlns="http://www.w3.org/2000/svg">
<path d="M126.326 0.331208C140.202 -0.837349 153.691 1.18928 167.055 4.78899C192.297 11.702 215.12 27.1997 231.101 47.8616C242.388 62.2604 250.244 79.0376 254.072 96.9203C257.587 111.461 258.007 126.485 255.99 141.279C251.819 133.496 247.237 125.921 242.962 118.191C242.193 116.507 242.373 114.35 242.12 112.532C240.532 94.4685 233.881 77.3937 223.854 62.3702C216.157 51.2906 206.583 41.6389 195.561 33.85C184.842 26.5148 172.946 21.0626 160.388 17.7288C143.479 13.5484 125.81 13.4965 108.876 17.5778C96.0934 20.8879 83.9851 26.3945 73.093 33.8512C58.6146 44.1515 46.1382 57.8187 38.0958 73.7083C31.6978 86.0105 27.5741 99.4227 26.4695 113.259C26.2732 114.841 26.396 116.736 25.6922 118.192C21.4172 125.918 16.8354 133.494 12.6629 141.28C10.6214 126.327 11.0919 111.135 14.692 96.4474C20.918 67.3386 38.5415 40.915 62.7146 23.5796C81.2583 9.92078 103.443 2.29247 126.326 0.331208Z" fill="white"/>
<path d="M119.058 48.7773C119.442 51.0204 119.022 53.047 118.87 55.2861C118.383 62.2361 117.802 69.1861 117.319 76.1361C117.18 76.9655 117.027 77.7877 116.861 78.6027C115.785 78.0227 114.375 76.2369 113.064 76.6621C108.442 77.5978 103.823 78.607 99.1881 79.5468C96.5694 79.931 95.1015 82.3701 93.4153 84.1433L92.9087 84.18C93.5629 78.2555 94.5936 72.38 95.2444 66.4599C93.039 67.9266 91.4643 69.9819 89.3984 71.616C86.2084 70.7375 82.997 69.9285 79.7643 69.1892C73.4438 72.9236 67.169 76.7358 60.8275 80.4375C61.8583 78.3455 62.7829 75.6246 64.9716 74.513C69.7905 71.5876 74.5483 68.5642 79.3632 65.6305C80.1202 65.0992 80.8759 64.798 81.1142 63.8163C82.1984 60.4537 82.9551 56.9767 84.072 53.6264C84.5137 52.2044 85.651 52.2044 86.9068 52.0206C97.6307 50.9837 108.34 49.7782 119.058 48.7773Z" fill="white"/>
<path d="M148.964 48.8344C159.597 49.7128 170.249 51.0204 180.882 52.0101C182.182 52.1899 183.397 52.1572 183.855 53.6282C184.977 56.9745 185.734 60.4555 186.813 63.8181C187.055 64.7986 187.812 65.105 188.564 65.6323C193.38 68.566 198.134 71.5895 202.956 74.5149C205.145 75.6248 206.069 78.3514 207.1 80.4393C200.759 76.7336 194.484 72.9214 188.163 69.191C184.935 69.931 181.724 70.7399 178.529 71.6178C176.463 69.9837 174.88 67.9284 172.683 66.4534C173.338 72.3732 174.34 78.241 175.031 84.1531L174.508 84.1245C172.805 82.3756 171.337 79.9285 168.735 79.5483C164.104 78.6125 159.485 77.6034 154.859 76.6636C153.55 76.2347 152.147 78.0159 151.079 78.6085C150.903 77.7863 150.744 76.9609 150.6 76.1323C150.069 68.6593 149.508 61.1891 148.919 53.7216C148.863 52.197 148.368 50.2727 148.964 48.8344Z" fill="white"/>
<path d="M82.0764 55.0856C81.5884 57.7031 80.9324 60.2866 80.1127 62.82C78.6 64.201 76.7169 65.2101 75.044 66.3991C71.6856 68.5573 68.5232 71.0813 65.0092 72.9772C66.1384 70.4073 67.2627 67.739 69.5255 65.9618C73.7351 62.3788 77.7767 58.5719 82.0764 55.0856Z" fill="white"/>
<path d="M121.533 54.9831C122.428 55.8532 123.077 56.8583 123.182 58.1333C123.378 61.018 123.058 63.9434 123.283 66.8281C123.619 68.5726 124.352 70.256 124.919 71.9352C122.657 77.0096 121.618 82.6116 119.83 87.8781C119.417 89.3939 118.472 91.2858 119.213 92.7935C120.187 94.1828 121.757 95.1593 122.637 96.5976C122.74 102.37 122.74 108.189 122.629 113.97C121.581 116.111 117.793 117.864 117.802 120.52C117.663 125.431 117.83 130.355 117.736 135.262C116.705 135.27 115.671 135.278 114.64 135.29C112.479 124.961 110.638 114.563 108.56 104.214C108.45 103.241 107.988 102.044 108.319 101.104C110.368 98.3464 113.126 95.9763 114.967 93.0633C113.563 92.9893 111.776 92.4466 110.438 92.9325C108.687 95.0162 106.605 97.1258 105.255 99.4613C105.423 101.48 106.012 103.346 106.257 105.337C106.077 106.493 104.674 107.441 103.938 108.328C102.346 110.616 98.7956 109.497 96.3692 109.656C96.279 104.856 96.4319 100.055 96.8273 95.27C93.3584 96.3315 90.1145 98.0073 86.7069 99.2372C86.6906 98.118 86.6702 97.0024 86.6579 95.8823C79.159 100.159 71.9266 104.981 64.3503 109.108C64.9844 107.612 66.2026 106.949 67.3735 105.921C74.2093 100.177 81.0274 94.4103 87.8279 88.6218C88.6179 87.9043 89.6264 87.4727 90.6914 87.3962C100.419 85.8854 110.123 84.2377 119.852 82.714C120.657 73.5194 120.948 64.2079 121.533 54.9831Z" fill="white"/>
<path d="M146.407 54.9911C146.967 64.2128 147.302 73.4959 148.063 82.7053C158.004 84.2824 167.92 85.9289 177.861 87.5152C178.769 87.6296 179.424 88.0585 180.107 88.6252C186.923 94.3989 193.741 100.165 200.561 105.924C201.731 106.954 202.963 107.608 203.581 109.112C196.012 104.98 188.775 100.163 181.277 95.8844C181.261 97.0036 181.24 98.1192 181.228 99.2384C177.816 98.0131 174.576 96.3337 171.107 95.2712C171.503 100.056 171.656 104.857 171.565 109.657C169.601 109.707 167.573 109.861 165.626 109.621C164.14 108.762 162.934 107.21 161.808 105.931C161.395 103.811 163.081 101.008 162.463 98.9612C160.942 96.9263 159.199 94.8296 157.497 92.9387C156.171 92.4435 154.384 92.9871 152.988 93.0531C154.792 95.9945 157.571 98.3316 159.612 101.098C159.947 102.033 159.481 103.235 159.37 104.207C157.292 114.556 155.451 124.955 153.291 135.284C152.261 135.275 151.225 135.264 150.194 135.255C150.1 130.345 150.268 125.42 150.129 120.514C150.138 117.854 146.341 116.105 145.301 113.964C145.192 108.182 145.2 102.365 145.293 96.5911C146.173 95.1525 147.744 94.1723 148.717 92.787C149.458 91.2762 148.513 89.388 148.1 87.8722C146.312 82.6057 145.273 77.0081 143.011 71.9293C143.58 70.2502 144.312 68.5587 144.647 66.8222C144.872 63.9335 144.553 61.0121 144.75 58.1274C144.864 56.8583 145.494 55.8575 146.407 54.9911Z" fill="white"/>
<path d="M185.861 55.0856C190.152 58.5697 194.194 62.3788 198.404 65.9662C200.666 67.7434 201.799 70.4196 202.92 72.9815C200.004 71.4707 197.411 69.3655 194.644 67.5923C192.407 65.9742 189.903 64.6219 187.817 62.82C186.996 60.2875 186.343 57.7038 185.861 55.0856V55.0856Z" fill="white"/>
<path d="M126.236 74.1579C131.399 74.0345 136.569 74.1495 141.733 74.1088C143.321 79.1999 144.678 84.3724 146.363 89.4348C145.017 89.0263 144.064 88.1765 143.017 87.3074C141.493 88.5871 140.077 89.9895 138.783 91.5006C140.092 92.9759 141.516 94.3239 142.927 95.7049C142.878 102.066 142.846 108.445 142.927 114.806C144.257 116.779 146.331 118.321 147.967 120.064C148.016 130.291 147.938 140.514 148.004 150.741L147.509 150.528C144.907 146.005 142.449 141.306 139.495 136.996C139.413 147.717 139.248 158.518 139.606 169.23C137.596 176.037 135.825 182.921 133.968 189.768C132.087 182.929 130.331 176.04 128.318 169.237C128.674 158.524 128.506 147.725 128.428 137.004C125.52 141.29 122.967 145.952 120.488 150.512L119.936 150.789C119.956 140.541 119.92 130.303 119.956 120.06C121.592 118.315 123.666 116.779 124.996 114.809C125.078 108.439 125.045 102.061 124.996 95.6957C126.408 94.323 127.831 92.9704 129.14 91.4997C127.846 89.9885 126.43 88.586 124.906 87.3064C123.858 88.1768 122.906 89.0266 121.56 89.4434C123.291 84.3968 124.534 79.1916 126.236 74.1579Z" fill="white"/>
<path d="M93.4175 83.5994C95.1033 81.8262 96.5712 79.387 99.1903 79.0029C103.821 78.0671 108.439 77.0579 113.066 76.1182C114.376 75.6893 115.787 77.4748 116.864 78.0588C117.031 77.2366 117.184 76.4144 117.322 75.5922C117.33 76.5279 117.342 77.473 117.366 78.4155" fill="white"/>
<path d="M150.6 75.5864C150.747 76.4158 150.907 77.2412 151.078 78.0625C152.146 77.4659 153.548 75.6884 154.858 76.1176C159.485 77.0534 164.099 78.0625 168.734 79.0023C171.336 79.3782 172.804 81.8257 174.507 83.5785C173.171 83.6124 171.835 83.5 170.523 83.2433C165.181 82.0298 159.842 80.7795 154.475 79.6359C153.142 79.3505 151.835 78.9542 150.568 78.451C150.59 77.4906 150.608 76.5385 150.6 75.5864Z" fill="white"/>
<path d="M125.001 86.6934C126.642 88.1096 128.163 89.6585 129.549 91.3242C128.144 92.9537 126.614 94.4426 125.099 95.9589C123.497 94.5336 121.978 93.0174 120.551 91.4179C120.84 90.6326 121.13 89.838 121.412 89.0527C122.853 88.597 123.877 87.6582 125.001 86.6934Z" fill="white"/>
<path d="M142.703 86.6934C143.938 87.693 145.062 88.6692 146.649 89.1384C146.957 89.9645 147.276 90.7902 147.594 91.6069C146.023 93.2785 144.356 94.8577 142.602 96.3366C140.938 94.7506 139.259 93.2022 137.716 91.5082C139.242 89.7684 140.91 88.158 142.703 86.6934V86.6934Z" fill="white"/>
<path d="M94.7485 99.1838C92.4458 104.752 89.7376 110.195 87.1852 115.654C86.3547 115.029 85.3443 113.526 84.2969 113.431C80.6683 116.634 77.2361 120.106 73.7391 123.453C73.6465 125.35 73.5999 127.237 73.6736 129.133C71.354 130.195 68.8177 130.224 66.4737 131.225C67.1648 132.185 67.8563 133.149 68.5232 134.129L67.84 134.681C66.7478 137.803 66.2406 141.108 65.2015 144.263C63.8188 141.153 61.6587 138.445 59.9448 135.498C60.812 133.966 62.0394 132.818 63.189 131.51C59.5234 131.097 55.8294 130.951 52.1598 130.567C49.55 130.064 46.9152 132.258 44.5965 133.32C41.9987 134.526 41.1081 136.99 39.7121 139.29L39.2987 139.404C38.9348 138.424 38.5705 137.443 38.2025 136.47C40.0705 131.613 42.2673 126.878 44.2634 122.068C44.6928 120.667 46.002 120.552 47.172 119.94C62.3533 113.33 77.4936 106.613 92.6619 99.9691C93.3539 99.6984 94.0494 99.4366 94.7485 99.1838Z" fill="white"/>
<path d="M173.188 99.1754C175.282 99.9231 177.293 100.847 179.324 101.745C192.447 107.519 205.572 113.292 218.698 119.065C220.184 119.739 221.787 120.262 223.178 121.129C224.655 124.042 225.759 127.143 227.105 130.121C227.935 132.221 229.114 134.283 229.629 136.483C229.441 137.61 228.909 138.567 228.357 139.547C227.002 137.251 225.915 134.477 223.334 133.316C220.993 132.242 218.404 130.076 215.77 130.563C212.097 130.906 208.403 131.04 204.746 131.515C205.925 132.741 207.014 134.052 208.002 135.437C206.292 138.424 204.104 141.133 202.726 144.263C201.678 141.103 201.174 137.778 200.071 134.653L199.395 134.121C200.071 133.149 200.762 132.189 201.453 131.225C199.117 130.215 196.573 130.199 194.253 129.133C194.327 127.237 194.282 125.35 194.188 123.453C190.698 120.108 187.258 116.635 183.637 113.431C182.598 113.497 181.572 115.045 180.749 115.662C178.422 110.897 176.279 106.04 173.995 101.259C173.711 100.572 173.449 99.8747 173.188 99.1754Z" fill="white"/>
<path d="M46.7341 107.102C46.3276 108.78 45.7901 110.423 45.1264 112.017C42.4304 119.258 39.7839 126.522 37.0836 133.754C36.5968 135.111 35.934 136.498 35.7376 137.93C36.4208 140.622 37.3577 143.254 38.0366 145.955C28.5901 164.393 19.0344 182.797 9.6787 201.281C9.67067 199.569 9.69506 197.803 9.3598 196.124C8.1898 194.629 6.59841 193.387 5.16138 192.128C6.39621 189.849 7.37852 187.45 8.41763 185.076C18.7307 161.705 29.0313 138.332 39.3193 114.955C39.6333 114.342 39.6935 113.631 39.4869 112.974C41.299 111.384 43.1729 109.894 44.9201 108.23C45.5176 107.841 46.1223 107.465 46.7341 107.102Z" fill="white"/>
<path d="M221.21 107.086C223.849 108.646 225.951 111.028 228.365 112.912C228.074 114.453 228.953 115.6 229.498 116.993C239.524 139.674 249.528 162.37 259.508 185.08C260.556 187.462 261.538 189.864 262.773 192.161C261.288 193.366 259.77 194.629 258.563 196.128C258.236 197.807 258.256 199.572 258.252 201.277C248.888 182.8 239.344 164.397 229.894 145.958C230.569 143.257 231.502 140.627 232.193 137.926C231.989 136.504 231.334 135.115 230.848 133.758C227.808 125.623 224.855 117.448 221.786 109.313C221.578 108.577 221.381 107.834 221.21 107.086Z" fill="white"/>
<path d="M39.9184 112.978C40.0228 113.303 40.0616 113.645 40.0325 113.985C40.0034 114.325 39.907 114.656 39.7489 114.959C29.321 138.322 18.9092 161.695 8.51356 185.079C7.46395 187.453 6.47084 189.851 5.22212 192.131C4.26698 192.357 3.31173 192.597 2.35639 192.85C1.57073 193.104 0.785066 193.373 0.00341797 193.652C0.0241014 192.467 0.780744 191.298 1.23146 190.216C11.7334 166.788 22.2751 143.16 32.778 119.74C34.5438 117.109 37.7442 115.343 39.9184 112.978Z" fill="white"/>
<path d="M85.359 109.813C86.5546 109.922 87.7082 111.652 88.6566 112.372C85.4618 116.563 81.2115 119.896 78.0123 124.05C77.7963 126.405 77.9469 128.78 77.662 131.137C74.243 132.039 70.8151 132.9 67.3493 133.634C66.5834 132.505 65.7986 131.395 65.0093 130.29C67.6808 129.137 70.5811 129.105 73.2295 127.882C73.1456 125.7 73.1968 123.527 73.3042 121.345C77.2974 117.493 81.2161 113.5 85.359 109.813Z" fill="white"/>
<path d="M184.288 111.873C188.722 115.436 192.936 119.3 197.209 123.024C197.325 125.133 197.38 127.233 197.29 129.342C200.13 130.528 203.248 130.546 206.107 131.67C205.261 132.742 204.414 133.811 203.588 134.892C199.874 134.187 196.203 133.346 192.525 132.483C192.229 130.205 192.389 127.91 192.159 125.633C188.737 121.625 184.173 118.391 180.751 114.355C181.763 113.664 183.016 111.946 184.288 111.873Z" fill="white"/>
<path d="M227.947 112.913C230.142 115.31 233.371 117.1 235.165 119.757C245.608 143.113 256.042 166.499 266.468 189.917C267.018 191.191 267.799 192.502 267.98 193.863C266.265 193.243 264.506 192.749 262.718 192.383C261.47 190.081 260.477 187.672 259.419 185.283C249.299 162.522 239.19 139.763 229.092 117.005C228.543 115.604 227.654 114.457 227.947 112.913Z" fill="white"/>
<path d="M53.7328 129.485C57.9769 129.929 62.2448 130.099 66.4747 130.575C65.1472 132.083 63.7272 133.409 62.7267 135.177C60.2644 133.258 55.8733 133.951 52.8724 133.612C48.1699 134.266 44.0863 138.675 39.3461 139.552C40.9578 136.898 41.9926 134.055 44.9892 132.663C47.6784 131.438 50.7173 128.906 53.7328 129.485Z" fill="white"/>
<path d="M215.672 129.99C218.631 129.441 221.544 131.887 224.18 133.1C227.084 134.411 228.313 137.545 229.832 140.138C225.391 138.703 221.701 135.547 217.334 134.07C214.135 134.259 209.685 133.692 206.938 135.496C205.825 133.934 204.601 132.453 203.275 131.067C207.388 130.531 211.544 130.375 215.672 129.99Z" fill="white"/>
<path d="M51.4091 136.034C53.6469 136.119 55.9162 136.091 58.1426 136.352C58.8545 136.794 59.2471 137.733 59.7136 138.415C61.3417 141.235 63.0353 144.001 64.6594 146.824C63.3993 146.44 61.8162 145.435 60.507 145.575C58.3102 147.985 56.4774 150.739 54.3788 153.235C53.5728 154.345 52.358 155.47 51.9937 156.814C51.732 159.11 51.9447 161.308 52.2716 163.584C51.928 164.021 51.5884 164.463 51.2448 164.908C49.1367 161.918 47.1829 158.823 45.3908 155.634C43.4811 150.962 41.8931 146.15 40.0409 141.455C42.8921 139.784 45.8375 138.289 48.7301 136.699C49.5231 136.184 50.4666 135.949 51.4091 136.034V136.034Z" fill="white"/>
<path d="M210.269 136.291C212.777 136.161 215.33 135.964 217.838 136.095C221.262 137.685 224.58 139.618 227.889 141.465C226.037 146.155 224.449 150.972 222.538 155.642C220.759 158.832 218.802 161.919 216.676 164.889C216.34 164.46 216.001 164.039 215.665 163.609C215.881 160.619 216.953 156.819 214.523 154.465C212.089 151.569 209.933 148.411 207.417 145.583C206.153 145.404 204.509 146.482 203.273 146.847C204.958 143.857 206.762 140.935 208.485 137.964C208.964 137.329 209.324 136.247 210.269 136.291Z" fill="white"/>
<path d="M129.426 135.288C129.519 146.578 129.704 157.95 129.303 169.235C126.389 162.359 126.642 154.626 125.294 147.152C123.749 148.049 122.145 148.838 120.492 149.514C123.285 144.713 126.153 139.804 129.426 135.288Z" fill="white"/>
<path d="M138.782 134.893C141.999 139.48 144.672 144.485 147.511 149.308C145.817 148.722 144.311 147.807 142.792 146.879C141.469 154.452 141.732 162.265 138.903 169.228C138.51 157.816 138.693 146.313 138.782 134.893Z" fill="white"/>
<path d="M59.4404 144.388C60.8166 144.239 62.4809 145.316 63.8052 145.728C62.4892 148.23 60.7089 150.298 59.0792 152.581C56.3178 156.305 53.7296 160.125 50.7796 163.7C50.4357 161.264 50.2119 158.903 50.4873 156.441C50.87 154.999 52.1472 153.794 52.9943 152.603C55.2046 149.926 57.1309 146.973 59.4404 144.388Z" fill="white"/>
<path d="M208.061 144.94C210.968 147.863 213.454 151.137 216.27 154.137C219.078 156.573 217.84 160.509 217.589 163.606C213.723 159.464 210.32 154.97 206.644 150.694C205.401 149.306 204.274 147.818 203.274 146.247C204.701 145.871 206.596 144.753 208.061 144.94Z" fill="white"/>
<path d="M123.249 151.303C121.538 152.451 119.313 153.844 118.093 151.245C117.25 147.752 118.102 143.719 117.664 140.103C116.977 140.031 116.283 140.104 115.626 140.316C111.867 147.739 108.398 155.401 104.756 162.894C103.427 165.407 102.982 167.891 100.391 169.48C99.737 171.486 99.6719 173.946 98.7473 175.793C93.1261 178.465 87.4029 181.06 81.6594 183.442C82.0153 182.416 82.3712 181.387 82.7272 180.357C77.4706 183.457 72.3488 186.801 67.1289 189.97C65.8363 190.64 65.6162 191.83 65.0914 193.063C64.1381 195.65 63.1197 198.212 62.1664 200.797C64.3712 199.867 67.0671 197.942 69.526 198.518C71.9394 198.852 74.3329 199.35 76.7667 199.592C77.5524 198.844 78.3457 198.105 79.1231 197.349C81.3976 197.692 83.6475 198.105 85.8838 198.648C87.958 198.959 89.4265 201.014 90.9524 202.355C96.3397 197.525 101.445 192.352 106.723 187.409C108.874 185.464 110.801 183.188 113.158 181.496C114.328 182.048 115.485 182.644 116.639 183.225C118.128 174.2 119.561 165.16 120.938 156.107C122.204 156.63 123.046 157.553 124.063 158.423C123.722 156.058 123.379 153.693 123.249 151.303ZM115.635 163.589C113.128 164.459 110.587 165.232 108.034 165.979C110.223 162.98 113.116 160.516 115.496 157.648C116.077 157.142 116.673 156.647 117.284 156.164C116.907 158.686 116.233 161.121 115.635 163.589Z" fill="white"/>
<path d="M201.655 190.592C196.247 187.091 190.72 183.679 185.198 180.353C185.554 181.382 185.91 182.417 186.266 183.446C181.141 181.407 176.186 178.935 171.113 176.77C170.442 176.378 169.337 176.132 168.941 175.442C168.352 173.489 168.09 171.446 167.538 169.481C166.555 168.689 165.574 168.063 165.058 166.854C160.832 157.963 156.566 149.089 152.357 140.202C151.673 140.136 150.985 140.122 150.299 140.157C149.951 143.491 150.364 146.91 150.123 150.253C149.919 151.438 149.394 152.394 148.168 152.738C146.736 152.786 145.831 151.998 144.686 151.307C144.555 153.698 144.211 156.063 143.856 158.424C144.858 157.554 145.725 156.631 146.981 156.108C148.355 165.158 149.788 174.197 151.28 183.226C152.438 182.646 153.592 182.041 154.762 181.497C156.979 183.075 158.804 185.215 160.824 187.054C166.22 192.124 171.457 197.387 176.955 202.355C178.489 201.032 179.974 198.963 182.036 198.65C184.273 198.106 186.523 197.689 188.796 197.35C189.573 198.106 190.367 198.845 191.152 199.593C193.587 199.352 195.98 198.853 198.393 198.519C200.778 197.951 203.34 199.806 205.555 200.602C204.455 197.261 203.272 193.715 201.655 190.592ZM152.295 163.589C151.698 161.123 151.023 158.678 150.643 156.165C151.252 156.643 151.848 157.138 152.43 157.648C154.807 160.508 157.695 162.984 159.891 165.98C157.351 165.239 154.807 164.468 152.295 163.589Z" fill="white"/>
<path d="M35.3681 168.369C46.6261 193.505 67.7639 214.183 93.2332 224.741C110.358 232.157 129.671 234.576 148.141 232.157C164.554 230.224 180.582 223.647 194.331 214.597C211.194 203.003 224.967 187.058 233.301 168.32C235.866 172.904 237.839 177.864 240.211 182.556C240.452 183.282 241.286 184.292 240.913 185.039C224.043 215.062 193.939 237.452 160.14 244.499C146.178 247.895 131.68 248.495 117.485 246.264C106.852 244.507 96.2363 241.774 86.3243 237.485C63.3908 227.6 43.9814 211.027 30.639 189.938C29.686 188.161 28.2052 186.454 27.5995 184.537C29.2196 180.7 31.1546 176.977 32.8849 173.186C33.7153 171.601 34.2636 169.77 35.3681 168.369Z" fill="white"/>
<path d="M113.168 180.282C114.338 180.86 115.495 181.486 116.649 182.095C108.954 189.852 101.255 197.682 93.4906 205.354C92.5543 206.283 91.965 206.335 90.7123 206.108C88.2701 205.911 86.7361 203.168 84.7641 201.826C83.7086 201.364 82.3586 201.552 81.2214 201.544C81.4683 202.513 81.7153 203.487 81.9623 204.462C76.8649 203.648 71.8058 202.611 66.7075 201.788C65.1481 201.564 63.6237 201.142 62.171 200.532C64.3758 199.555 67.0718 197.536 69.5306 198.141C71.9441 198.493 74.3375 199.015 76.7713 199.268C77.557 198.484 78.3504 197.709 79.1277 196.916C81.4023 197.276 83.6521 197.709 85.8884 198.278C87.9626 198.604 89.4311 200.759 90.9571 202.165C96.3443 197.1 101.45 191.673 106.728 186.488C108.889 184.438 110.816 182.057 113.168 180.282Z" fill="white"/>
<path d="M154.761 180.282C156.978 181.937 158.803 184.182 160.823 186.109C166.219 191.428 171.456 196.948 176.954 202.159C178.489 200.772 179.973 198.602 182.034 198.272C184.273 197.702 186.522 197.265 188.798 196.909C189.575 197.702 190.368 198.478 191.153 199.262C193.588 199.009 195.98 198.486 198.395 198.135C200.78 197.54 203.34 199.485 205.557 200.321L205.565 200.78C199.122 202.357 192.482 203.246 185.954 204.461C186.215 203.484 186.457 202.511 186.703 201.543C185.569 201.543 184.215 201.358 183.159 201.825C180.782 203.492 179.69 206.128 176.5 206.196C175.277 206.453 174.507 205.352 173.673 204.628C166.211 197.154 158.688 189.606 151.276 182.094C152.433 181.487 153.592 180.852 154.761 180.282Z" fill="white"/>
<path d="M2.34618 192.325C3.29906 192.057 4.25193 191.805 5.20481 191.567C6.64864 192.893 8.25299 194.197 9.43688 195.777C9.77646 197.546 9.75022 199.406 9.75856 201.21C9.56067 201.683 9.35446 202.165 9.15627 202.647C7.81987 202.045 7.0444 200.956 6.05437 199.91C4.0382 197.646 1.918 195.52 0 193.169C0.775474 192.877 1.5633 192.593 2.34618 192.325Z" fill="white"/>
<path d="M262.213 192.039C264.168 192.406 266.095 192.905 267.983 193.531C265.829 195.771 263.495 197.837 261.27 200.02C260.164 201.028 259.335 202.078 257.862 202.645C257.643 202.182 257.417 201.727 257.2 201.264C257.209 199.536 257.181 197.751 257.544 196.056C258.886 194.535 260.572 193.258 262.213 192.039Z" fill="white"/>
</svg>
